<?xml version="1.0" encoding="UTF-8"?>
<svg xmlns="http://www.w3.org/2000/svg" xmlns:xlink="http://www.w3.org/1999/xlink" width="48px" height="48px" viewBox="0 0 48 48" version="1.1">
<g id="surface1">
<path style=" stroke:none;fill-rule:nonzero;fill:rgb(95.686275%,17.647059%,69.411767%);fill-opacity:1;" d="M 19.851562 5.5 C 19.835938 5.613281 19.792969 5.703125 19.742188 5.804688 C 19.734375 5.824219 19.726562 5.839844 19.71875 5.859375 C 19.699219 5.894531 19.679688 5.933594 19.664062 5.972656 C 19.613281 6.074219 19.566406 6.175781 19.515625 6.277344 C 19.503906 6.308594 19.503906 6.308594 19.488281 6.339844 C 19.394531 6.539062 19.304688 6.734375 19.214844 6.933594 C 19.070312 7.253906 18.921875 7.570312 18.769531 7.886719 C 18.640625 8.160156 18.511719 8.433594 18.386719 8.710938 C 18.246094 9.03125 18.097656 9.347656 17.945312 9.660156 C 17.816406 9.933594 17.6875 10.210938 17.5625 10.488281 C 17.425781 10.789062 17.289062 11.085938 17.144531 11.386719 C 16.984375 11.726562 16.824219 12.066406 16.667969 12.40625 C 16.574219 12.605469 16.484375 12.804688 16.390625 13.007812 C 16.378906 13.027344 16.371094 13.050781 16.359375 13.074219 C 16.214844 13.386719 16.070312 13.699219 15.921875 14.011719 C 15.734375 14.414062 15.546875 14.816406 15.363281 15.21875 C 15.320312 15.308594 15.28125 15.394531 15.238281 15.484375 C 15.230469 15.507812 15.21875 15.527344 15.207031 15.550781 C 15.078125 15.832031 14.945312 16.113281 14.816406 16.394531 C 14.808594 16.410156 14.800781 16.425781 14.792969 16.441406 C 14.789062 16.457031 14.78125 16.472656 14.773438 16.488281 C 14.585938 16.890625 14.398438 17.292969 14.210938 17.695312 C 14.171875 17.785156 14.128906 17.871094 14.089844 17.960938 C 14.078125 17.980469 14.070312 18.003906 14.058594 18.027344 C 13.925781 18.308594 13.796875 18.589844 13.664062 18.871094 C 13.660156 18.886719 13.652344 18.902344 13.644531 18.917969 C 13.636719 18.929688 13.628906 18.945312 13.621094 18.960938 C 13.433594 19.363281 13.246094 19.765625 13.0625 20.171875 C 13.019531 20.257812 12.980469 20.347656 12.9375 20.433594 C 12.921875 20.46875 12.921875 20.46875 12.90625 20.5 C 12.777344 20.78125 12.648438 21.0625 12.515625 21.34375 C 12.507812 21.359375 12.5 21.375 12.496094 21.390625 C 12.488281 21.40625 12.480469 21.421875 12.472656 21.4375 C 12.285156 21.839844 12.097656 22.242188 11.910156 22.644531 C 11.871094 22.734375 11.828125 22.820312 11.789062 22.910156 C 11.773438 22.941406 11.773438 22.941406 11.757812 22.976562 C 11.628906 23.257812 11.496094 23.539062 11.367188 23.820312 C 11.359375 23.835938 11.351562 23.851562 11.34375 23.867188 C 11.335938 23.882812 11.332031 23.894531 11.324219 23.910156 C 11.136719 24.3125 10.949219 24.71875 10.761719 25.121094 C 10.71875 25.207031 10.679688 25.296875 10.640625 25.382812 C 10.625 25.417969 10.625 25.417969 10.609375 25.449219 C 10.476562 25.734375 10.347656 26.015625 10.214844 26.296875 C 10.207031 26.308594 10.203125 26.324219 10.195312 26.339844 C 10.1875 26.355469 10.179688 26.371094 10.171875 26.386719 C 9.984375 26.789062 9.796875 27.191406 9.609375 27.59375 C 9.570312 27.683594 9.53125 27.769531 9.488281 27.859375 C 9.472656 27.890625 9.472656 27.890625 9.457031 27.925781 C 9.328125 28.207031 9.195312 28.488281 9.066406 28.769531 C 9.058594 28.785156 9.050781 28.800781 9.042969 28.816406 C 9.039062 28.832031 9.03125 28.847656 9.023438 28.863281 C 8.882812 29.164062 8.742188 29.46875 8.597656 29.773438 C 8.574219 29.828125 8.546875 29.886719 8.519531 29.945312 C 8.277344 30.464844 8.039062 30.980469 7.800781 31.5 C 7.785156 31.5 7.765625 31.5 7.75 31.5 C 7.628906 29.617188 7.511719 27.738281 7.390625 25.855469 C 7.390625 25.828125 7.390625 25.800781 7.386719 25.769531 C 7.347656 25.167969 7.3125 24.5625 7.273438 23.957031 C 7.253906 23.660156 7.234375 23.363281 7.214844 23.066406 C 7.214844 23.039062 7.210938 23.007812 7.210938 22.976562 C 7.148438 22.019531 7.089844 21.0625 7.027344 20.105469 C 6.964844 19.121094 6.902344 18.140625 6.839844 17.15625 C 6.832031 17.019531 6.824219 16.878906 6.816406 16.738281 C 6.8125 16.710938 6.8125 16.683594 6.808594 16.65625 C 6.78125 16.21875 6.753906 15.777344 6.726562 15.335938 C 6.699219 14.894531 6.671875 14.453125 6.640625 14.007812 C 6.625 13.746094 6.609375 13.484375 6.59375 13.21875 C 6.582031 13.042969 6.570312 12.871094 6.558594 12.695312 C 6.550781 12.59375 6.546875 12.492188 6.539062 12.394531 C 6.535156 12.300781 6.527344 12.210938 6.523438 12.121094 C 6.519531 12.074219 6.515625 12.023438 6.511719 11.976562 C 6.511719 11.933594 6.511719 11.933594 6.507812 11.890625 C 6.507812 11.863281 6.503906 11.839844 6.503906 11.8125 C 6.5 11.757812 6.5 11.703125 6.5 11.648438 C 6.839844 11.484375 7.179688 11.324219 7.523438 11.167969 C 7.808594 11.039062 8.09375 10.910156 8.375 10.773438 C 8.671875 10.636719 8.964844 10.5 9.265625 10.363281 C 9.527344 10.246094 9.789062 10.125 10.050781 10 C 10.34375 9.859375 10.640625 9.722656 10.9375 9.589844 C 11.203125 9.46875 11.464844 9.347656 11.726562 9.226562 C 12.019531 9.085938 12.320312 8.949219 12.617188 8.8125 C 12.871094 8.699219 13.125 8.582031 13.375 8.460938 C 13.644531 8.335938 13.914062 8.210938 14.183594 8.089844 C 14.484375 7.953125 14.78125 7.816406 15.078125 7.675781 C 15.339844 7.550781 15.601562 7.429688 15.863281 7.3125 C 16.144531 7.183594 16.429688 7.054688 16.710938 6.921875 C 16.738281 6.90625 16.738281 6.90625 16.765625 6.894531 C 16.792969 6.882812 16.792969 6.882812 16.820312 6.867188 C 17.105469 6.734375 17.394531 6.601562 17.683594 6.46875 C 17.847656 6.390625 18.015625 6.316406 18.179688 6.238281 C 18.285156 6.191406 18.386719 6.140625 18.492188 6.09375 C 18.511719 6.085938 18.53125 6.074219 18.554688 6.066406 C 18.6875 6.003906 18.824219 5.941406 18.957031 5.878906 C 19.046875 5.835938 19.140625 5.796875 19.230469 5.753906 C 19.273438 5.734375 19.316406 5.714844 19.359375 5.695312 C 19.421875 5.664062 19.480469 5.636719 19.542969 5.609375 C 19.566406 5.597656 19.566406 5.597656 19.59375 5.585938 C 19.78125 5.5 19.78125 5.5 19.851562 5.5 Z M 19.851562 5.5 "/>
<path style=" stroke:none;fill-rule:nonzero;fill:rgb(67.843139%,13.725491%,94.901961%);fill-opacity:1;" d="M 28.148438 5.5 C 28.257812 5.515625 28.34375 5.554688 28.445312 5.601562 C 28.46875 5.613281 28.46875 5.613281 28.492188 5.625 C 28.53125 5.640625 28.566406 5.660156 28.601562 5.675781 C 28.695312 5.722656 28.792969 5.769531 28.890625 5.8125 C 28.910156 5.824219 28.929688 5.832031 28.949219 5.84375 C 29.144531 5.933594 29.339844 6.023438 29.539062 6.113281 C 29.835938 6.246094 30.132812 6.386719 30.429688 6.523438 C 30.6875 6.648438 30.949219 6.769531 31.210938 6.886719 C 31.511719 7.023438 31.808594 7.160156 32.101562 7.300781 C 32.363281 7.421875 32.625 7.542969 32.886719 7.664062 C 33.167969 7.789062 33.445312 7.917969 33.726562 8.050781 C 34.019531 8.191406 34.320312 8.328125 34.617188 8.460938 C 34.886719 8.585938 35.15625 8.710938 35.425781 8.835938 C 35.675781 8.953125 35.929688 9.070312 36.183594 9.1875 C 36.46875 9.316406 36.753906 9.445312 37.035156 9.578125 C 37.0625 9.59375 37.0625 9.59375 37.089844 9.605469 C 37.109375 9.613281 37.125 9.621094 37.144531 9.632812 C 37.429688 9.765625 37.71875 9.898438 38.007812 10.03125 C 38.171875 10.109375 38.339844 10.183594 38.503906 10.261719 C 38.609375 10.308594 38.714844 10.359375 38.820312 10.40625 C 38.851562 10.421875 38.851562 10.421875 38.882812 10.4375 C 39.027344 10.503906 39.171875 10.570312 39.316406 10.636719 C 39.722656 10.824219 40.125 11.011719 40.53125 11.199219 C 40.574219 11.21875 40.617188 11.238281 40.660156 11.257812 C 40.722656 11.285156 40.78125 11.3125 40.84375 11.34375 C 40.859375 11.351562 40.878906 11.359375 40.894531 11.367188 C 41.027344 11.429688 41.164062 11.492188 41.296875 11.554688 C 41.316406 11.5625 41.335938 11.570312 41.355469 11.582031 C 41.402344 11.605469 41.453125 11.628906 41.5 11.648438 C 41.433594 12.765625 41.367188 13.878906 41.296875 14.992188 C 41.28125 15.214844 41.265625 15.433594 41.253906 15.652344 C 41.226562 16.058594 41.203125 16.460938 41.175781 16.867188 C 41.152344 17.269531 41.125 17.667969 41.101562 18.066406 C 41.097656 18.09375 41.097656 18.117188 41.09375 18.144531 C 41.085938 18.269531 41.078125 18.398438 41.070312 18.527344 C 41.015625 19.421875 40.957031 20.320312 40.902344 21.214844 C 40.847656 22.085938 40.789062 22.957031 40.734375 23.828125 C 40.734375 23.867188 40.734375 23.867188 40.730469 23.910156 C 40.714844 24.179688 40.695312 24.449219 40.679688 24.71875 C 40.644531 25.269531 40.609375 25.820312 40.574219 26.371094 C 40.574219 26.398438 40.570312 26.421875 40.570312 26.449219 C 40.464844 28.132812 40.355469 29.816406 40.25 31.5 C 40.234375 31.5 40.21875 31.5 40.199219 31.5 C 39.992188 31.0625 39.785156 30.621094 39.582031 30.179688 C 39.476562 29.949219 39.371094 29.722656 39.265625 29.492188 C 39.253906 29.472656 39.246094 29.449219 39.234375 29.425781 C 39.089844 29.113281 38.945312 28.800781 38.796875 28.488281 C 38.609375 28.085938 38.421875 27.683594 38.234375 27.28125 C 38.195312 27.191406 38.15625 27.105469 38.113281 27.015625 C 38.105469 26.992188 38.09375 26.972656 38.082031 26.949219 C 37.953125 26.667969 37.820312 26.386719 37.691406 26.105469 C 37.683594 26.089844 37.675781 26.074219 37.667969 26.058594 C 37.660156 26.035156 37.660156 26.035156 37.648438 26.011719 C 37.460938 25.609375 37.273438 25.207031 37.085938 24.804688 C 37.046875 24.714844 37.003906 24.628906 36.964844 24.539062 C 36.953125 24.519531 36.945312 24.496094 36.933594 24.472656 C 36.800781 24.191406 36.671875 23.910156 36.539062 23.628906 C 36.535156 23.613281 36.527344 23.597656 36.519531 23.582031 C 36.507812 23.5625 36.507812 23.5625 36.496094 23.539062 C 36.308594 23.136719 36.121094 22.734375 35.9375 22.328125 C 35.894531 22.242188 35.855469 22.152344 35.8125 22.066406 C 35.804688 22.042969 35.792969 22.023438 35.78125 22 C 35.652344 21.71875 35.523438 21.4375 35.390625 21.15625 C 35.382812 21.140625 35.375 21.125 35.371094 21.109375 C 35.359375 21.085938 35.359375 21.085938 35.347656 21.0625 C 35.160156 20.660156 34.972656 20.257812 34.785156 19.855469 C 34.746094 19.765625 34.703125 19.679688 34.664062 19.589844 C 34.652344 19.570312 34.644531 19.546875 34.632812 19.523438 C 34.503906 19.242188 34.371094 18.960938 34.242188 18.679688 C 34.234375 18.664062 34.226562 18.648438 34.21875 18.632812 C 34.207031 18.609375 34.207031 18.609375 34.199219 18.589844 C 34.011719 18.1875 33.824219 17.78125 33.636719 17.378906 C 33.59375 17.292969 33.554688 17.203125 33.515625 17.117188 C 33.503906 17.09375 33.492188 17.070312 33.484375 17.050781 C 33.351562 16.765625 33.222656 16.484375 33.089844 16.203125 C 33.082031 16.191406 33.078125 16.175781 33.070312 16.160156 C 33.058594 16.136719 33.058594 16.136719 33.046875 16.113281 C 32.859375 15.710938 32.671875 15.308594 32.484375 14.90625 C 32.445312 14.816406 32.40625 14.730469 32.363281 14.640625 C 32.355469 14.617188 32.34375 14.597656 32.332031 14.574219 C 32.203125 14.292969 32.070312 14.011719 31.941406 13.730469 C 31.933594 13.714844 31.925781 13.699219 31.917969 13.683594 C 31.910156 13.660156 31.910156 13.660156 31.898438 13.636719 C 31.710938 13.234375 31.523438 12.832031 31.335938 12.429688 C 31.296875 12.339844 31.253906 12.253906 31.214844 12.164062 C 31.203125 12.144531 31.195312 12.121094 31.183594 12.097656 C 31.050781 11.816406 30.921875 11.535156 30.789062 11.253906 C 30.785156 11.238281 30.777344 11.222656 30.769531 11.207031 C 30.757812 11.1875 30.757812 11.1875 30.746094 11.164062 C 30.558594 10.761719 30.371094 10.359375 30.1875 9.953125 C 30.144531 9.867188 30.105469 9.777344 30.0625 9.691406 C 30.046875 9.65625 30.046875 9.65625 30.03125 9.625 C 29.902344 9.34375 29.773438 9.0625 29.640625 8.78125 C 29.632812 8.765625 29.625 8.75 29.621094 8.734375 C 29.613281 8.71875 29.605469 8.703125 29.597656 8.6875 C 29.410156 8.285156 29.222656 7.882812 29.035156 7.480469 C 28.996094 7.390625 28.953125 7.304688 28.914062 7.214844 C 28.902344 7.195312 28.894531 7.171875 28.882812 7.148438 C 28.722656 6.804688 28.5625 6.460938 28.402344 6.113281 C 28.390625 6.089844 28.378906 6.0625 28.363281 6.035156 C 28.335938 5.972656 28.304688 5.910156 28.277344 5.847656 C 28.269531 5.832031 28.261719 5.816406 28.25 5.796875 C 28.234375 5.765625 28.21875 5.730469 28.203125 5.699219 C 28.171875 5.625 28.148438 5.578125 28.148438 5.5 Z M 28.148438 5.5 "/>
<path style=" stroke:none;fill-rule:nonzero;fill:rgb(91.764706%,2.745098%,36.470589%);fill-opacity:1;" d="M 16.886719 32.796875 C 16.917969 32.796875 16.917969 32.796875 16.957031 32.796875 C 16.980469 32.796875 17.003906 32.796875 17.03125 32.796875 C 17.113281 32.796875 17.195312 32.796875 17.28125 32.796875 C 17.339844 32.796875 17.402344 32.796875 17.460938 32.796875 C 17.589844 32.796875 17.722656 32.796875 17.855469 32.796875 C 18.046875 32.796875 18.242188 32.796875 18.4375 32.796875 C 18.765625 32.796875 19.09375 32.796875 19.421875 32.796875 C 19.746094 32.796875 20.070312 32.796875 20.398438 32.796875 C 20.417969 32.796875 20.4375 32.796875 20.457031 32.796875 C 20.558594 32.796875 20.664062 32.796875 20.765625 32.796875 C 21.492188 32.796875 22.21875 32.796875 22.941406 32.796875 C 23.648438 32.796875 24.355469 32.796875 25.058594 32.796875 C 25.082031 32.796875 25.101562 32.796875 25.125 32.796875 C 25.34375 32.796875 25.5625 32.796875 25.78125 32.796875 C 26.226562 32.796875 26.671875 32.800781 27.113281 32.800781 C 27.136719 32.800781 27.15625 32.800781 27.175781 32.800781 C 28.542969 32.800781 29.910156 32.800781 31.273438 32.800781 C 31.292969 32.832031 31.308594 32.863281 31.324219 32.894531 C 31.332031 32.914062 31.339844 32.933594 31.351562 32.949219 C 31.375 33.003906 31.398438 33.054688 31.421875 33.109375 C 31.429688 33.128906 31.4375 33.148438 31.445312 33.167969 C 31.453125 33.1875 31.464844 33.210938 31.472656 33.230469 C 31.480469 33.253906 31.488281 33.273438 31.5 33.296875 C 31.53125 33.371094 31.558594 33.441406 31.589844 33.515625 C 31.609375 33.566406 31.632812 33.617188 31.652344 33.671875 C 31.695312 33.777344 31.742188 33.882812 31.785156 33.992188 C 31.875 34.210938 31.96875 34.433594 32.058594 34.652344 C 32.105469 34.773438 32.15625 34.890625 32.207031 35.011719 C 32.214844 35.035156 32.226562 35.058594 32.234375 35.082031 C 32.296875 35.230469 32.355469 35.378906 32.417969 35.523438 C 32.449219 35.601562 32.480469 35.675781 32.511719 35.75 C 32.550781 35.847656 32.589844 35.945312 32.632812 36.042969 C 32.71875 36.257812 32.808594 36.476562 32.902344 36.691406 C 32.917969 36.726562 32.933594 36.761719 32.949219 36.800781 C 32.976562 36.867188 33.007812 36.929688 33.035156 36.996094 C 33.046875 37.027344 33.058594 37.054688 33.074219 37.082031 C 33.089844 37.121094 33.089844 37.121094 33.105469 37.15625 C 33.128906 37.234375 33.128906 37.273438 33.101562 37.351562 C 33.042969 37.394531 33.042969 37.394531 32.972656 37.433594 C 32.945312 37.445312 32.917969 37.460938 32.886719 37.476562 C 32.875 37.484375 32.859375 37.492188 32.84375 37.5 C 32.78125 37.53125 32.71875 37.566406 32.660156 37.597656 C 32.628906 37.617188 32.59375 37.632812 32.5625 37.648438 C 32.414062 37.730469 32.269531 37.8125 32.125 37.898438 C 31.914062 38.023438 31.703125 38.144531 31.488281 38.261719 C 31.246094 38.394531 31.007812 38.53125 30.773438 38.671875 C 30.570312 38.789062 30.363281 38.90625 30.160156 39.019531 C 29.980469 39.117188 29.804688 39.21875 29.628906 39.324219 C 29.386719 39.464844 29.144531 39.601562 28.902344 39.734375 C 28.691406 39.851562 28.480469 39.972656 28.273438 40.09375 C 28.070312 40.214844 27.863281 40.328125 27.660156 40.445312 C 27.480469 40.542969 27.304688 40.644531 27.128906 40.75 C 26.886719 40.890625 26.644531 41.023438 26.402344 41.160156 C 26.191406 41.277344 25.980469 41.398438 25.773438 41.519531 C 25.570312 41.640625 25.363281 41.753906 25.160156 41.867188 C 24.949219 41.984375 24.738281 42.105469 24.53125 42.230469 C 24.484375 42.257812 24.4375 42.285156 24.394531 42.308594 C 24.347656 42.335938 24.296875 42.367188 24.25 42.394531 C 24.226562 42.410156 24.203125 42.421875 24.179688 42.4375 C 24.160156 42.449219 24.136719 42.460938 24.113281 42.476562 C 24.03125 42.507812 23.984375 42.5 23.898438 42.476562 C 23.835938 42.445312 23.835938 42.445312 23.769531 42.410156 C 23.746094 42.394531 23.71875 42.378906 23.695312 42.367188 C 23.667969 42.351562 23.644531 42.335938 23.617188 42.320312 C 23.589844 42.304688 23.558594 42.289062 23.53125 42.273438 C 23.320312 42.152344 23.109375 42.03125 22.902344 41.90625 C 22.695312 41.785156 22.488281 41.667969 22.277344 41.550781 C 22.050781 41.425781 21.824219 41.296875 21.597656 41.164062 C 21.472656 41.097656 21.351562 41.027344 21.230469 40.957031 C 21.15625 40.914062 21.082031 40.871094 21.007812 40.828125 C 20.976562 40.8125 20.945312 40.792969 20.914062 40.777344 C 20.855469 40.742188 20.796875 40.707031 20.738281 40.675781 C 20.722656 40.667969 20.707031 40.65625 20.691406 40.648438 C 20.664062 40.632812 20.636719 40.617188 20.605469 40.601562 C 20.53125 40.558594 20.460938 40.515625 20.386719 40.476562 C 20.253906 40.398438 20.125 40.324219 19.992188 40.25 C 19.917969 40.207031 19.84375 40.164062 19.769531 40.121094 C 19.753906 40.113281 19.742188 40.105469 19.726562 40.097656 C 19.519531 39.980469 19.3125 39.863281 19.105469 39.746094 C 18.878906 39.621094 18.652344 39.488281 18.425781 39.355469 C 18.246094 39.25 18.066406 39.148438 17.886719 39.050781 C 17.683594 38.9375 17.476562 38.820312 17.273438 38.699219 C 17.046875 38.566406 16.820312 38.4375 16.589844 38.308594 C 16.320312 38.160156 16.054688 38.007812 15.785156 37.851562 C 15.675781 37.789062 15.5625 37.726562 15.453125 37.664062 C 15.40625 37.636719 15.355469 37.605469 15.308594 37.578125 C 15.277344 37.5625 15.246094 37.542969 15.214844 37.527344 C 15.171875 37.503906 15.128906 37.476562 15.085938 37.453125 C 15.0625 37.4375 15.035156 37.425781 15.011719 37.410156 C 14.964844 37.382812 14.917969 37.355469 14.875 37.324219 C 14.890625 37.199219 14.929688 37.089844 14.980469 36.976562 C 14.988281 36.957031 14.996094 36.9375 15.003906 36.917969 C 15.03125 36.851562 15.058594 36.789062 15.085938 36.726562 C 15.105469 36.679688 15.121094 36.632812 15.140625 36.589844 C 15.171875 36.515625 15.203125 36.445312 15.230469 36.371094 C 15.332031 36.128906 15.433594 35.890625 15.53125 35.648438 C 15.582031 35.527344 15.632812 35.40625 15.683594 35.285156 C 15.699219 35.246094 15.699219 35.246094 15.710938 35.210938 C 15.828125 34.929688 15.945312 34.644531 16.0625 34.363281 C 16.160156 34.128906 16.257812 33.890625 16.355469 33.65625 C 16.378906 33.601562 16.402344 33.550781 16.421875 33.496094 C 16.453125 33.417969 16.488281 33.339844 16.519531 33.257812 C 16.550781 33.1875 16.578125 33.113281 16.609375 33.042969 C 16.617188 33.019531 16.625 33 16.636719 32.976562 C 16.644531 32.957031 16.652344 32.9375 16.660156 32.917969 C 16.667969 32.898438 16.675781 32.882812 16.683594 32.863281 C 16.722656 32.773438 16.792969 32.796875 16.886719 32.796875 Z M 16.886719 32.796875 "/>
<path style=" stroke:none;fill-rule:nonzero;fill:rgb(85.882354%,10.980392%,65.490198%);fill-opacity:1;" d="M 23.976562 15.351562 C 23.992188 15.351562 24.007812 15.351562 24.023438 15.351562 C 24.253906 15.898438 24.480469 16.449219 24.703125 17 C 24.710938 17.019531 24.722656 17.039062 24.730469 17.058594 C 24.792969 17.21875 24.859375 17.375 24.925781 17.535156 C 24.980469 17.671875 25.039062 17.8125 25.09375 17.953125 C 25.109375 17.980469 25.109375 17.980469 25.121094 18.011719 C 25.257812 18.351562 25.398438 18.6875 25.539062 19.023438 C 25.683594 19.382812 25.832031 19.742188 25.980469 20.097656 C 25.988281 20.117188 25.996094 20.136719 26.003906 20.160156 C 26.070312 20.316406 26.132812 20.476562 26.199219 20.632812 C 26.257812 20.773438 26.3125 20.914062 26.371094 21.050781 C 26.378906 21.070312 26.386719 21.089844 26.394531 21.113281 C 26.535156 21.449219 26.671875 21.789062 26.8125 22.125 C 26.960938 22.484375 27.109375 22.839844 27.253906 23.199219 C 27.261719 23.21875 27.269531 23.238281 27.28125 23.257812 C 27.34375 23.417969 27.410156 23.574219 27.472656 23.734375 C 27.53125 23.875 27.589844 24.011719 27.644531 24.152344 C 27.652344 24.171875 27.660156 24.191406 27.671875 24.210938 C 27.796875 24.523438 27.925781 24.832031 28.054688 25.144531 C 28.21875 25.542969 28.382812 25.941406 28.546875 26.34375 C 28.566406 26.390625 28.589844 26.441406 28.609375 26.488281 C 28.636719 26.554688 28.664062 26.621094 28.691406 26.691406 C 28.699219 26.710938 28.707031 26.730469 28.714844 26.75 C 28.722656 26.769531 28.730469 26.785156 28.738281 26.804688 C 28.746094 26.820312 28.75 26.835938 28.757812 26.855469 C 28.777344 26.902344 28.789062 26.949219 28.800781 27 C 25.632812 27 22.464844 27 19.199219 27 C 19.285156 26.746094 19.285156 26.746094 19.320312 26.660156 C 19.332031 26.628906 19.332031 26.628906 19.347656 26.597656 C 19.355469 26.578125 19.363281 26.558594 19.371094 26.535156 C 19.386719 26.5 19.386719 26.5 19.402344 26.46875 C 19.421875 26.417969 19.441406 26.371094 19.460938 26.324219 C 19.503906 26.21875 19.546875 26.117188 19.589844 26.011719 C 19.609375 25.960938 19.632812 25.90625 19.65625 25.855469 C 19.753906 25.613281 19.855469 25.371094 19.953125 25.125 C 19.972656 25.085938 19.988281 25.046875 20.003906 25.007812 C 20.050781 24.886719 20.101562 24.769531 20.148438 24.648438 C 20.214844 24.492188 20.28125 24.332031 20.34375 24.171875 C 20.351562 24.152344 20.363281 24.132812 20.371094 24.113281 C 20.519531 23.75 20.667969 23.386719 20.816406 23.027344 C 20.957031 22.695312 21.09375 22.359375 21.230469 22.027344 C 21.242188 21.996094 21.242188 21.996094 21.253906 21.964844 C 21.3125 21.828125 21.367188 21.6875 21.425781 21.550781 C 21.488281 21.390625 21.554688 21.230469 21.621094 21.074219 C 21.628906 21.054688 21.636719 21.035156 21.644531 21.011719 C 21.792969 20.652344 21.941406 20.289062 22.09375 19.925781 C 22.230469 19.59375 22.367188 19.261719 22.503906 18.925781 C 22.511719 18.90625 22.519531 18.886719 22.53125 18.867188 C 22.585938 18.726562 22.644531 18.589844 22.699219 18.449219 C 22.765625 18.292969 22.832031 18.132812 22.894531 17.972656 C 22.90625 17.945312 22.90625 17.945312 22.921875 17.914062 C 23.070312 17.550781 23.21875 17.1875 23.367188 16.828125 C 23.570312 16.335938 23.773438 15.84375 23.976562 15.351562 Z M 23.976562 15.351562 "/>
</g>
</svg>
