<?xml version="1.0" encoding="UTF-8"?>
<svg version="1.1" xmlns="http://www.w3.org/2000/svg" width="48" height="48">
<path d="M0 0 C4.93276866 1.71337318 6.4593038 5.5969441 8.6784668 10.05102539 C11.80630924 16.92186708 12.42961622 23.51657683 11 31 C9.48716749 34.00687208 7.87200761 36.20412176 5 38 C4.01 38 3.02 38 2 38 C2 39.98 2 41.96 2 44 C1.34 44 0.68 44 0 44 C0 42.02 0 40.04 0 38 C-0.556875 37.95875 -1.11375 37.9175 -1.6875 37.875 C-4.4121352 36.84405695 -6.22160919 35.56521049 -8 33.2421875 C-10.61914908 27.36956417 -10.34513041 20.02665661 -8.32324219 13.97412109 C-6.23444131 8.96320806 -3.86394193 3.86394193 0 0 Z " fill="#679F37" transform="translate(23,2)"/>
</svg>
