<?xml version="1.0" encoding="UTF-8"?>
<svg xmlns="http://www.w3.org/2000/svg" xmlns:xlink="http://www.w3.org/1999/xlink" width="48px" height="48px" viewBox="0 0 48 48" version="1.1">
<g id="surface1">
<path style=" stroke:none;fill-rule:nonzero;fill:rgb(0%,84.313725%,100%);fill-opacity:1;" d="M 36.394531 4.304688 C 36.445312 4.332031 36.445312 4.332031 36.492188 4.363281 C 37.726562 5.179688 38.171875 6.742188 38.371094 7.996094 C 38.460938 8.582031 38.480469 9.160156 38.480469 9.753906 C 38.476562 9.828125 38.476562 9.828125 38.476562 9.902344 C 38.472656 10.761719 38.417969 11.605469 38.265625 12.457031 C 38.261719 12.484375 38.253906 12.515625 38.25 12.546875 C 38.097656 13.40625 37.886719 14.257812 37.640625 15.101562 C 37.691406 15.109375 37.738281 15.113281 37.789062 15.117188 C 37.972656 15.140625 38.148438 15.183594 38.328125 15.234375 C 38.378906 15.246094 38.378906 15.246094 38.429688 15.257812 C 38.535156 15.289062 38.644531 15.316406 38.75 15.347656 C 38.808594 15.363281 38.808594 15.363281 38.863281 15.378906 C 39.898438 15.660156 40.914062 15.984375 41.902344 16.386719 C 42.003906 16.425781 42.105469 16.464844 42.207031 16.503906 C 44.242188 17.296875 46.726562 18.636719 47.558594 20.527344 C 47.929688 21.441406 47.882812 22.3125 47.417969 23.195312 C 46.855469 24.113281 45.976562 24.910156 45.011719 25.523438 C 44.933594 25.570312 44.859375 25.621094 44.78125 25.671875 C 42.738281 26.996094 40.230469 27.839844 37.785156 28.425781 C 37.839844 28.707031 37.90625 28.980469 37.980469 29.253906 C 38.160156 29.925781 38.300781 30.601562 38.410156 31.28125 C 38.421875 31.355469 38.421875 31.355469 38.433594 31.433594 C 38.644531 32.804688 38.699219 34.304688 38.410156 35.667969 C 38.402344 35.710938 38.394531 35.75 38.382812 35.792969 C 38.097656 37.125 37.539062 38.488281 36.210938 39.308594 C 35.191406 39.875 34.058594 39.902344 32.894531 39.765625 C 32.835938 39.757812 32.773438 39.753906 32.710938 39.746094 C 32.457031 39.714844 32.230469 39.671875 31.992188 39.59375 C 31.882812 39.558594 31.777344 39.523438 31.667969 39.492188 C 30.078125 39.027344 28.59375 38.316406 27.273438 37.421875 C 27.191406 37.367188 27.109375 37.3125 27.027344 37.257812 C 26.707031 37.050781 26.398438 36.832031 26.09375 36.605469 C 25.953125 36.503906 25.8125 36.40625 25.667969 36.308594 C 25.449219 36.152344 25.246094 35.984375 25.046875 35.808594 C 24.890625 35.671875 24.722656 35.546875 24.550781 35.421875 C 24.523438 35.398438 24.492188 35.378906 24.464844 35.355469 C 24.398438 35.308594 24.332031 35.261719 24.265625 35.214844 C 24.234375 35.238281 24.234375 35.238281 24.203125 35.265625 C 24.027344 35.421875 23.847656 35.5625 23.660156 35.703125 C 23.539062 35.796875 23.421875 35.890625 23.304688 35.988281 C 22.996094 36.238281 22.679688 36.476562 22.34375 36.703125 C 22.289062 36.742188 22.238281 36.78125 22.183594 36.820312 C 21.769531 37.109375 21.347656 37.378906 20.910156 37.640625 C 20.847656 37.675781 20.785156 37.710938 20.722656 37.75 C 18.78125 38.917969 16.226562 40.070312 13.769531 39.832031 C 13.621094 39.800781 13.476562 39.765625 13.332031 39.722656 C 13.273438 39.710938 13.214844 39.695312 13.152344 39.679688 C 12.03125 39.390625 11.296875 38.734375 10.75 37.871094 C 10.089844 36.789062 9.871094 35.472656 9.871094 34.265625 C 9.871094 34.21875 9.871094 34.167969 9.871094 34.117188 C 9.871094 34.011719 9.871094 33.910156 9.871094 33.804688 C 9.867188 33.648438 9.867188 33.488281 9.867188 33.332031 C 9.867188 33.230469 9.867188 33.128906 9.867188 33.027344 C 9.867188 32.957031 9.867188 32.957031 9.867188 32.886719 C 9.867188 32.605469 9.894531 32.34375 9.949219 32.066406 C 9.972656 31.941406 9.996094 31.816406 10.011719 31.691406 C 10.179688 30.617188 10.414062 29.554688 10.742188 28.511719 C 10.710938 28.503906 10.675781 28.496094 10.644531 28.492188 C 10.203125 28.402344 9.777344 28.28125 9.351562 28.160156 C 9.3125 28.148438 9.273438 28.136719 9.234375 28.125 C 6.730469 27.398438 4.324219 26.417969 2.398438 24.828125 C 2.355469 24.792969 2.3125 24.757812 2.269531 24.722656 C 1.351562 23.960938 0.609375 22.921875 0.554688 21.800781 C 0.53125 20.570312 1.320312 19.574219 2.269531 18.71875 C 2.566406 18.457031 2.890625 18.230469 3.230469 18.011719 C 3.300781 17.964844 3.371094 17.914062 3.445312 17.867188 C 4.613281 17.078125 6.011719 16.492188 7.382812 16.015625 C 7.425781 16 7.472656 15.984375 7.515625 15.96875 C 8.15625 15.75 8.808594 15.558594 9.464844 15.375 C 9.503906 15.363281 9.542969 15.351562 9.582031 15.34375 C 9.980469 15.230469 10.375 15.121094 10.789062 15.0625 C 10.769531 15.007812 10.769531 15.007812 10.75 14.949219 C 10.15625 13.238281 9.867188 11.410156 9.867188 9.628906 C 9.871094 9.582031 9.871094 9.582031 9.871094 9.53125 C 9.871094 9.097656 9.882812 8.667969 9.917969 8.238281 C 9.921875 8.171875 9.921875 8.171875 9.925781 8.105469 C 10.046875 6.847656 10.59375 5.445312 11.652344 4.550781 C 11.6875 4.519531 11.71875 4.492188 11.753906 4.460938 C 12.457031 3.863281 13.507812 3.671875 14.460938 3.667969 C 16.535156 3.695312 18.546875 4.570312 20.234375 5.542969 C 20.269531 5.566406 20.304688 5.585938 20.339844 5.605469 C 20.761719 5.847656 21.175781 6.105469 21.578125 6.371094 C 21.617188 6.398438 21.617188 6.398438 21.65625 6.425781 C 22.234375 6.808594 22.785156 7.207031 23.316406 7.632812 C 23.429688 7.722656 23.542969 7.808594 23.65625 7.894531 C 23.835938 8.027344 24.003906 8.171875 24.167969 8.316406 C 24.363281 8.25 24.492188 8.128906 24.636719 8 C 24.824219 7.832031 25.015625 7.671875 25.222656 7.519531 C 25.339844 7.433594 25.449219 7.34375 25.5625 7.25 C 25.8125 7.054688 26.074219 6.875 26.34375 6.695312 C 26.457031 6.621094 26.574219 6.539062 26.6875 6.460938 C 29.078125 4.769531 33.378906 2.425781 36.394531 4.304688 Z M 27.222656 7.433594 C 27.113281 7.507812 27 7.585938 26.890625 7.660156 C 26.65625 7.820312 26.4375 7.992188 26.21875 8.167969 C 26.113281 8.253906 26.007812 8.335938 25.898438 8.417969 C 25.617188 8.625 25.347656 8.84375 25.078125 9.0625 C 25.15625 9.226562 25.292969 9.34375 25.433594 9.46875 C 25.691406 9.707031 25.9375 9.949219 26.179688 10.195312 C 26.277344 10.296875 26.378906 10.398438 26.480469 10.5 C 26.78125 10.792969 27.066406 11.089844 27.34375 11.398438 C 27.457031 11.523438 27.570312 11.644531 27.683594 11.765625 C 28.246094 12.367188 28.761719 12.996094 29.285156 13.621094 C 29.304688 13.648438 29.324219 13.671875 29.347656 13.695312 C 29.363281 13.726562 29.378906 13.753906 29.398438 13.785156 C 29.554688 13.914062 29.746094 13.90625 29.953125 13.921875 C 30 13.925781 30.046875 13.929688 30.097656 13.9375 C 30.199219 13.945312 30.300781 13.953125 30.402344 13.964844 C 30.675781 13.988281 30.949219 14.015625 31.226562 14.042969 C 31.28125 14.046875 31.335938 14.054688 31.394531 14.058594 C 31.921875 14.113281 32.449219 14.175781 32.972656 14.246094 C 33.015625 14.25 33.058594 14.257812 33.101562 14.261719 C 33.949219 14.375 34.789062 14.527344 35.625 14.679688 C 35.699219 14.695312 35.699219 14.695312 35.769531 14.707031 C 35.859375 14.722656 35.945312 14.742188 36.035156 14.757812 C 36.09375 14.769531 36.09375 14.769531 36.152344 14.78125 C 36.1875 14.785156 36.222656 14.792969 36.257812 14.800781 C 36.355469 14.816406 36.355469 14.816406 36.492188 14.8125 C 37.226562 12.082031 38.164062 8.367188 36.324219 5.796875 C 36.183594 5.617188 36.039062 5.453125 35.867188 5.296875 C 35.835938 5.296875 35.804688 5.296875 35.773438 5.296875 C 35.761719 5.273438 35.75 5.246094 35.738281 5.222656 C 35.5625 4.964844 35.066406 4.804688 34.75 4.734375 C 32.09375 4.242188 29.136719 6.066406 27.222656 7.433594 Z M 12.277344 5.460938 C 10.8125 7.070312 10.921875 9.566406 11.183594 11.492188 C 11.304688 12.355469 11.488281 13.203125 11.710938 14.050781 C 11.71875 14.082031 11.730469 14.113281 11.738281 14.148438 C 11.761719 14.234375 11.785156 14.324219 11.808594 14.414062 C 11.824219 14.464844 11.835938 14.515625 11.851562 14.566406 C 11.886719 14.695312 11.886719 14.695312 11.988281 14.8125 C 12.039062 14.804688 12.089844 14.792969 12.144531 14.785156 C 13.925781 14.449219 15.710938 14.179688 17.523438 14 C 17.597656 13.992188 17.671875 13.984375 17.746094 13.976562 C 17.9375 13.957031 18.125 13.941406 18.316406 13.933594 C 18.703125 13.921875 18.703125 13.921875 19.054688 13.792969 C 19.144531 13.703125 19.203125 13.613281 19.265625 13.511719 C 19.3125 13.4375 19.363281 13.367188 19.414062 13.296875 C 19.4375 13.257812 19.460938 13.222656 19.488281 13.183594 C 19.613281 13.007812 19.757812 12.847656 19.910156 12.6875 C 19.964844 12.625 20.023438 12.566406 20.078125 12.503906 C 20.105469 12.472656 20.132812 12.445312 20.160156 12.414062 C 20.269531 12.292969 20.378906 12.167969 20.492188 12.042969 C 20.703125 11.804688 20.925781 11.570312 21.148438 11.339844 C 21.214844 11.265625 21.285156 11.191406 21.355469 11.117188 C 21.722656 10.730469 22.097656 10.351562 22.488281 9.980469 C 22.578125 9.898438 22.664062 9.8125 22.753906 9.722656 C 22.949219 9.527344 23.152344 9.335938 23.351562 9.144531 C 23.277344 8.980469 23.152344 8.890625 23.003906 8.773438 C 22.949219 8.730469 22.898438 8.691406 22.84375 8.652344 C 22.820312 8.628906 22.792969 8.609375 22.761719 8.589844 C 22.65625 8.503906 22.550781 8.417969 22.445312 8.332031 C 22.148438 8.097656 21.847656 7.871094 21.53125 7.65625 C 21.476562 7.617188 21.421875 7.578125 21.367188 7.539062 C 20.425781 6.878906 19.429688 6.296875 18.367188 5.792969 C 18.335938 5.777344 18.304688 5.761719 18.273438 5.75 C 16.582031 4.929688 13.84375 3.988281 12.277344 5.460938 Z M 24.074219 9.960938 C 23.875 10.136719 23.675781 10.316406 23.492188 10.503906 C 23.382812 10.609375 23.277344 10.710938 23.167969 10.8125 C 22.96875 11 22.785156 11.191406 22.601562 11.386719 C 22.503906 11.488281 22.402344 11.589844 22.304688 11.691406 C 22.023438 11.972656 21.761719 12.261719 21.503906 12.558594 C 21.300781 12.789062 21.09375 13.019531 20.886719 13.246094 C 20.859375 13.277344 20.832031 13.304688 20.804688 13.335938 C 20.769531 13.375 20.769531 13.375 20.734375 13.414062 C 20.714844 13.4375 20.691406 13.464844 20.667969 13.488281 C 20.628906 13.53125 20.628906 13.53125 20.585938 13.578125 C 20.515625 13.652344 20.515625 13.652344 20.523438 13.738281 C 20.914062 13.742188 21.304688 13.734375 21.695312 13.71875 C 22.449219 13.691406 23.203125 13.691406 23.957031 13.691406 C 24.152344 13.691406 24.347656 13.691406 24.546875 13.691406 C 25.359375 13.691406 26.171875 13.695312 26.988281 13.730469 C 27.292969 13.742188 27.601562 13.742188 27.90625 13.738281 C 27.65625 13.390625 27.363281 13.070312 27.074219 12.75 C 27.019531 12.6875 26.96875 12.628906 26.917969 12.566406 C 26.890625 12.535156 26.867188 12.507812 26.839844 12.476562 C 26.816406 12.445312 26.792969 12.417969 26.769531 12.390625 C 26.75 12.371094 26.730469 12.351562 26.710938 12.332031 C 26.675781 12.332031 26.644531 12.332031 26.613281 12.332031 C 26.601562 12.300781 26.59375 12.273438 26.582031 12.242188 C 26.503906 12.097656 26.394531 11.988281 26.273438 11.867188 C 26.222656 11.820312 26.175781 11.773438 26.128906 11.726562 C 26.09375 11.691406 26.09375 11.691406 26.058594 11.652344 C 25.964844 11.558594 25.875 11.464844 25.785156 11.367188 C 25.667969 11.238281 25.546875 11.109375 25.421875 10.980469 C 25.394531 10.953125 25.367188 10.925781 25.339844 10.898438 C 25.273438 10.832031 25.273438 10.832031 25.175781 10.839844 C 25.164062 10.8125 25.15625 10.785156 25.148438 10.757812 C 25.066406 10.613281 24.96875 10.53125 24.835938 10.421875 C 24.710938 10.316406 24.597656 10.203125 24.484375 10.089844 C 24.414062 10.019531 24.34375 9.953125 24.265625 9.890625 C 24.160156 9.878906 24.160156 9.878906 24.074219 9.960938 Z M 20.507812 14.761719 C 20.386719 14.769531 20.265625 14.773438 20.144531 14.777344 C 19.816406 14.78125 19.816406 14.78125 19.519531 14.890625 C 19.488281 14.933594 19.453125 14.976562 19.421875 15.019531 C 19.394531 15.054688 19.367188 15.085938 19.339844 15.117188 C 19.242188 15.238281 19.152344 15.359375 19.058594 15.480469 C 19.007812 15.546875 19.007812 15.546875 18.953125 15.617188 C 18.65625 16.007812 18.363281 16.402344 18.078125 16.800781 C 18.046875 16.84375 18.015625 16.886719 17.984375 16.929688 C 17.527344 17.570312 17.085938 18.214844 16.667969 18.875 C 16.597656 18.984375 16.523438 19.097656 16.449219 19.210938 C 16.171875 19.644531 15.90625 20.082031 15.640625 20.519531 C 15.605469 20.582031 15.570312 20.640625 15.535156 20.699219 C 15.433594 20.863281 15.339844 21.027344 15.246094 21.195312 C 15.203125 21.265625 15.160156 21.335938 15.113281 21.402344 C 15.015625 21.570312 14.945312 21.695312 14.988281 21.882812 C 15.046875 22.011719 15.117188 22.128906 15.195312 22.25 C 15.222656 22.292969 15.25 22.335938 15.277344 22.382812 C 15.332031 22.476562 15.390625 22.570312 15.449219 22.660156 C 15.53125 22.792969 15.613281 22.929688 15.691406 23.0625 C 15.992188 23.570312 16.308594 24.070312 16.636719 24.566406 C 16.746094 24.730469 16.851562 24.894531 16.957031 25.058594 C 18.109375 26.984375 18.109375 26.984375 19.613281 28.675781 C 19.703125 28.683594 19.796875 28.691406 19.886719 28.695312 C 19.945312 28.699219 20.007812 28.703125 20.066406 28.707031 C 20.132812 28.710938 20.199219 28.714844 20.261719 28.71875 C 20.296875 28.71875 20.328125 28.722656 20.363281 28.722656 C 24.691406 29.125 24.691406 29.125 28.867188 28.632812 C 28.957031 28.546875 28.957031 28.546875 29.039062 28.429688 C 29.070312 28.386719 29.105469 28.34375 29.136719 28.296875 C 29.171875 28.25 29.207031 28.203125 29.242188 28.15625 C 29.277344 28.105469 29.316406 28.058594 29.351562 28.007812 C 29.445312 27.882812 29.535156 27.757812 29.628906 27.632812 C 29.679688 27.5625 29.730469 27.492188 29.78125 27.425781 C 30.210938 26.84375 30.621094 26.25 31.023438 25.65625 C 31.054688 25.613281 31.082031 25.570312 31.109375 25.527344 C 31.796875 24.515625 32.4375 23.484375 33.054688 22.4375 C 33.109375 22.347656 33.164062 22.257812 33.222656 22.167969 C 33.25 22.125 33.273438 22.078125 33.300781 22.035156 C 33.339844 21.976562 33.339844 21.976562 33.375 21.921875 C 33.449219 21.738281 33.398438 21.613281 33.316406 21.4375 C 33.292969 21.398438 33.269531 21.355469 33.242188 21.3125 C 33.203125 21.242188 33.203125 21.242188 33.160156 21.171875 C 33.132812 21.121094 33.101562 21.070312 33.070312 21.019531 C 33.042969 20.96875 33.011719 20.917969 32.980469 20.863281 C 32.730469 20.441406 32.472656 20.023438 32.203125 19.609375 C 32.121094 19.480469 32.039062 19.347656 31.953125 19.21875 C 31.578125 18.625 31.1875 18.039062 30.785156 17.460938 C 30.757812 17.425781 30.734375 17.386719 30.707031 17.347656 C 30.257812 16.699219 29.785156 16.0625 29.296875 15.433594 C 29.273438 15.402344 29.25 15.371094 29.222656 15.335938 C 29.011719 15.042969 29.011719 15.042969 28.722656 14.8125 C 28.585938 14.796875 28.585938 14.796875 28.425781 14.789062 C 28.332031 14.785156 28.332031 14.785156 28.238281 14.777344 C 28.171875 14.777344 28.109375 14.773438 28.042969 14.769531 C 27.980469 14.765625 27.921875 14.761719 27.859375 14.761719 C 27.691406 14.75 27.519531 14.742188 27.351562 14.734375 C 27.273438 14.734375 27.195312 14.730469 27.117188 14.726562 C 26.203125 14.683594 25.285156 14.679688 24.367188 14.683594 C 24.242188 14.683594 24.113281 14.683594 23.988281 14.683594 C 22.828125 14.683594 21.667969 14.6875 20.507812 14.761719 Z M 30.402344 14.980469 C 30.476562 15.171875 30.597656 15.328125 30.726562 15.496094 C 31.800781 16.910156 32.773438 18.386719 33.683594 19.882812 C 33.707031 19.925781 33.707031 19.925781 33.734375 19.96875 C 33.777344 20.042969 33.824219 20.117188 33.871094 20.191406 C 33.9375 20.296875 34.007812 20.390625 34.09375 20.484375 C 34.4375 19.9375 34.695312 19.363281 34.957031 18.785156 C 34.980469 18.738281 35 18.691406 35.023438 18.640625 C 35.359375 17.90625 35.65625 17.160156 35.941406 16.410156 C 35.957031 16.367188 35.957031 16.367188 35.976562 16.324219 C 36.039062 16.152344 36.097656 15.980469 36.15625 15.808594 C 33.308594 15.195312 33.308594 15.195312 30.402344 14.980469 Z M 17.253906 15.023438 C 17.210938 15.027344 17.171875 15.03125 17.125 15.039062 C 16.988281 15.054688 16.851562 15.070312 16.710938 15.085938 C 16.640625 15.09375 16.640625 15.09375 16.566406 15.101562 C 15.324219 15.246094 14.089844 15.4375 12.863281 15.660156 C 12.8125 15.667969 12.761719 15.675781 12.707031 15.6875 C 12.660156 15.695312 12.609375 15.703125 12.5625 15.714844 C 12.496094 15.726562 12.496094 15.726562 12.425781 15.738281 C 12.394531 15.746094 12.359375 15.757812 12.324219 15.765625 C 12.226562 15.9375 12.378906 16.175781 12.445312 16.347656 C 12.453125 16.375 12.460938 16.398438 12.472656 16.425781 C 12.90625 17.621094 13.429688 18.792969 14.003906 19.945312 C 14.027344 20 14.054688 20.050781 14.082031 20.105469 C 14.152344 20.246094 14.21875 20.386719 14.289062 20.523438 C 14.417969 20.386719 14.511719 20.234375 14.605469 20.078125 C 14.636719 20.019531 14.671875 19.964844 14.703125 19.90625 C 14.722656 19.878906 14.738281 19.847656 14.757812 19.816406 C 15.089844 19.253906 15.433594 18.695312 15.800781 18.148438 C 15.871094 18.042969 15.941406 17.9375 16.011719 17.832031 C 16.621094 16.894531 17.269531 15.984375 17.972656 15.097656 C 18.035156 15.03125 18.035156 15.03125 18.03125 14.980469 C 17.765625 14.972656 17.515625 14.992188 17.253906 15.023438 Z M 10.382812 16.21875 C 10.347656 16.226562 10.316406 16.234375 10.285156 16.242188 C 7.667969 16.925781 4.960938 17.851562 3.019531 19.574219 C 2.992188 19.59375 2.964844 19.617188 2.9375 19.640625 C 2.277344 20.175781 1.792969 20.917969 1.753906 21.707031 C 1.769531 22.484375 2.25 23.144531 2.828125 23.710938 C 2.890625 23.769531 2.890625 23.769531 2.949219 23.828125 C 3.183594 24.054688 3.421875 24.265625 3.691406 24.457031 C 3.71875 24.472656 3.742188 24.492188 3.765625 24.507812 C 4.476562 25.019531 5.234375 25.433594 6.042969 25.820312 C 6.082031 25.839844 6.121094 25.859375 6.160156 25.878906 C 7.511719 26.523438 8.960938 26.980469 10.433594 27.378906 C 10.484375 27.394531 10.539062 27.410156 10.59375 27.425781 C 10.640625 27.4375 10.691406 27.449219 10.742188 27.464844 C 10.804688 27.480469 10.804688 27.480469 10.871094 27.5 C 10.988281 27.527344 10.988281 27.527344 11.125 27.476562 C 11.1875 27.355469 11.1875 27.355469 11.234375 27.203125 C 11.242188 27.175781 11.253906 27.144531 11.265625 27.117188 C 11.285156 27.054688 11.308594 26.992188 11.328125 26.933594 C 11.386719 26.765625 11.445312 26.601562 11.503906 26.433594 C 11.515625 26.398438 11.527344 26.367188 11.539062 26.332031 C 12.046875 24.929688 12.714844 23.570312 13.40625 22.230469 C 13.429688 22.1875 13.449219 22.140625 13.472656 22.097656 C 13.488281 22.070312 13.503906 22.046875 13.515625 22.023438 C 13.605469 21.859375 13.640625 21.769531 13.570312 21.601562 C 13.511719 21.476562 13.453125 21.351562 13.386719 21.230469 C 13.351562 21.15625 13.3125 21.082031 13.273438 21.003906 C 13.253906 20.964844 13.234375 20.925781 13.214844 20.886719 C 12.789062 20.058594 12.398438 19.222656 12.035156 18.371094 C 12.011719 18.316406 11.988281 18.257812 11.960938 18.203125 C 11.953125 18.175781 11.941406 18.152344 11.929688 18.125 C 11.902344 18.058594 11.871094 17.996094 11.839844 17.929688 C 11.660156 17.539062 11.515625 17.144531 11.375 16.746094 C 11.347656 16.679688 11.324219 16.609375 11.300781 16.542969 C 11.242188 16.382812 11.183594 16.21875 11.125 16.054688 C 10.875 16.054688 10.621094 16.15625 10.382812 16.21875 Z M 37.308594 16.097656 C 37.207031 16.292969 37.117188 16.492188 37.042969 16.695312 C 37.019531 16.757812 36.996094 16.816406 36.972656 16.878906 C 36.960938 16.910156 36.949219 16.941406 36.9375 16.972656 C 36.558594 17.96875 36.148438 18.953125 35.675781 19.917969 C 35.660156 19.953125 35.644531 19.984375 35.628906 20.019531 C 35.46875 20.347656 35.308594 20.671875 35.113281 20.988281 C 34.835938 21.394531 34.835938 21.394531 34.785156 21.847656 C 34.847656 21.992188 34.9375 22.117188 35.035156 22.246094 C 35.171875 22.449219 35.277344 22.667969 35.386719 22.882812 C 35.410156 22.933594 35.4375 22.984375 35.464844 23.035156 C 36.03125 24.121094 36.523438 25.234375 36.972656 26.359375 C 37.003906 26.4375 37.035156 26.511719 37.0625 26.589844 C 37.179688 26.871094 37.289062 27.152344 37.402344 27.433594 C 38.917969 27.0625 40.414062 26.625 41.808594 25.988281 C 41.925781 25.9375 42.039062 25.886719 42.15625 25.835938 C 42.652344 25.617188 43.128906 25.390625 43.589844 25.117188 C 43.617188 25.101562 43.644531 25.085938 43.671875 25.066406 C 44.058594 24.835938 44.429688 24.59375 44.789062 24.332031 C 44.832031 24.296875 44.878906 24.261719 44.925781 24.226562 C 45.503906 23.789062 45.972656 23.3125 46.320312 22.71875 C 46.34375 22.683594 46.363281 22.648438 46.382812 22.609375 C 46.644531 22.140625 46.703125 21.605469 46.523438 21.105469 C 46.320312 20.65625 46.070312 20.261719 45.699219 19.902344 C 45.664062 19.871094 45.628906 19.835938 45.59375 19.800781 C 45.347656 19.554688 45.085938 19.316406 44.789062 19.117188 C 44.753906 19.117188 44.722656 19.117188 44.691406 19.117188 C 44.691406 19.089844 44.691406 19.0625 44.691406 19.035156 C 44.601562 18.960938 44.601562 18.960938 44.484375 18.882812 C 44.425781 18.84375 44.425781 18.84375 44.367188 18.804688 C 44.261719 18.734375 44.261719 18.734375 44.117188 18.746094 C 44.101562 18.703125 44.085938 18.664062 44.066406 18.621094 C 43.988281 18.5625 43.988281 18.5625 43.890625 18.511719 C 43.855469 18.492188 43.816406 18.472656 43.777344 18.453125 C 43.738281 18.429688 43.699219 18.410156 43.65625 18.386719 C 43.617188 18.367188 43.574219 18.34375 43.53125 18.320312 C 42.914062 17.992188 42.277344 17.691406 41.621094 17.421875 C 41.585938 17.40625 41.546875 17.390625 41.507812 17.375 C 40.484375 16.953125 39.425781 16.613281 38.34375 16.320312 C 38.3125 16.308594 38.277344 16.300781 38.242188 16.292969 C 38.148438 16.265625 38.054688 16.242188 37.960938 16.214844 C 37.910156 16.203125 37.855469 16.1875 37.800781 16.171875 C 37.636719 16.136719 37.472656 16.113281 37.308594 16.097656 Z M 14.289062 22.964844 C 13.746094 24.054688 13.246094 25.152344 12.785156 26.269531 C 12.773438 26.296875 12.761719 26.324219 12.75 26.355469 C 12.667969 26.550781 12.59375 26.742188 12.515625 26.9375 C 12.496094 26.984375 12.496094 26.984375 12.480469 27.027344 C 12.445312 27.117188 12.410156 27.207031 12.375 27.296875 C 12.363281 27.324219 12.355469 27.351562 12.34375 27.378906 C 12.285156 27.539062 12.265625 27.648438 12.324219 27.808594 C 15.152344 28.359375 15.152344 28.359375 18.03125 28.550781 C 17.96875 28.40625 17.894531 28.285156 17.796875 28.15625 C 17.769531 28.121094 17.738281 28.085938 17.710938 28.046875 C 17.679688 28.007812 17.652344 27.96875 17.621094 27.929688 C 16.402344 26.335938 15.351562 24.660156 14.335938 22.964844 C 14.320312 22.964844 14.304688 22.964844 14.289062 22.964844 Z M 34.046875 22.964844 C 34.035156 22.984375 34.023438 23.007812 34.011719 23.027344 C 33.710938 23.550781 33.398438 24.066406 33.070312 24.578125 C 32.984375 24.710938 32.902344 24.84375 32.816406 24.976562 C 32.097656 26.101562 31.332031 27.199219 30.53125 28.285156 C 30.441406 28.390625 30.441406 28.390625 30.402344 28.511719 C 31.046875 28.488281 31.679688 28.421875 32.320312 28.34375 C 32.371094 28.335938 32.421875 28.328125 32.472656 28.324219 C 33.710938 28.167969 34.941406 27.972656 36.15625 27.722656 C 36.238281 27.515625 36.160156 27.363281 36.082031 27.167969 C 36.066406 27.132812 36.054688 27.097656 36.039062 27.0625 C 35.996094 26.953125 35.949219 26.839844 35.902344 26.726562 C 35.871094 26.652344 35.84375 26.574219 35.8125 26.496094 C 35.324219 25.292969 34.765625 24.117188 34.140625 22.964844 C 34.109375 22.964844 34.078125 22.964844 34.046875 22.964844 Z M 11.941406 28.757812 C 11.796875 29.101562 11.703125 29.457031 11.609375 29.8125 C 11.601562 29.847656 11.59375 29.878906 11.585938 29.910156 C 11.464844 30.386719 11.359375 30.859375 11.273438 31.339844 C 11.265625 31.390625 11.257812 31.441406 11.246094 31.496094 C 11.117188 32.269531 11.058594 33.039062 11.0625 33.824219 C 11.0625 33.863281 11.0625 33.902344 11.0625 33.945312 C 11.0625 34.554688 11.082031 35.152344 11.222656 35.75 C 11.230469 35.789062 11.238281 35.828125 11.246094 35.867188 C 11.351562 36.3125 11.484375 36.742188 11.699219 37.160156 C 11.722656 37.203125 11.746094 37.246094 11.765625 37.289062 C 12.097656 37.890625 12.609375 38.425781 13.351562 38.660156 C 15.171875 39.117188 17.140625 38.359375 18.714844 37.617188 C 19.601562 37.183594 20.449219 36.675781 21.242188 36.125 C 21.3125 36.074219 21.3125 36.074219 21.386719 36.027344 C 21.515625 35.9375 21.644531 35.84375 21.769531 35.75 C 21.796875 35.734375 21.820312 35.714844 21.847656 35.695312 C 22.382812 35.308594 22.90625 34.902344 23.402344 34.46875 C 23.335938 34.351562 23.269531 34.257812 23.167969 34.160156 C 23.136719 34.132812 23.109375 34.105469 23.078125 34.074219 C 22.921875 33.925781 22.761719 33.78125 22.605469 33.632812 C 22.121094 33.183594 22.121094 33.183594 21.984375 33.011719 C 21.960938 32.988281 21.9375 32.964844 21.914062 32.9375 C 21.882812 32.9375 21.851562 32.9375 21.816406 32.9375 C 21.800781 32.890625 21.800781 32.890625 21.777344 32.84375 C 21.726562 32.734375 21.683594 32.679688 21.578125 32.605469 C 21.546875 32.605469 21.515625 32.605469 21.484375 32.605469 C 21.476562 32.582031 21.472656 32.558594 21.46875 32.535156 C 21.429688 32.425781 21.375 32.371094 21.285156 32.289062 C 21.101562 32.117188 20.941406 31.9375 20.777344 31.75 C 20.699219 31.660156 20.621094 31.574219 20.542969 31.484375 C 20.484375 31.417969 20.425781 31.347656 20.367188 31.28125 C 20.339844 31.253906 20.3125 31.226562 20.285156 31.199219 C 20.253906 31.199219 20.21875 31.199219 20.1875 31.199219 C 20.175781 31.171875 20.167969 31.144531 20.15625 31.117188 C 20.070312 30.953125 19.953125 30.824219 19.828125 30.683594 C 19.675781 30.511719 19.523438 30.339844 19.378906 30.164062 C 19.359375 30.136719 19.339844 30.109375 19.316406 30.082031 C 19.277344 30.035156 19.238281 29.984375 19.199219 29.933594 C 19.0625 29.765625 18.941406 29.652344 18.699219 29.609375 C 18.578125 29.597656 18.453125 29.585938 18.332031 29.578125 C 18.285156 29.574219 18.238281 29.570312 18.191406 29.566406 C 18.089844 29.558594 17.988281 29.550781 17.890625 29.542969 C 17.621094 29.523438 17.355469 29.5 17.089844 29.476562 C 17.035156 29.472656 16.980469 29.46875 16.925781 29.464844 C 15.488281 29.339844 14.074219 29.128906 12.660156 28.882812 C 12.589844 28.871094 12.519531 28.859375 12.449219 28.847656 C 12.28125 28.816406 12.109375 28.789062 11.941406 28.757812 Z M 36.300781 28.71875 C 34.699219 29.03125 33.085938 29.285156 31.453125 29.441406 C 31.273438 29.453125 31.273438 29.453125 31.167969 29.503906 C 31.058594 29.511719 30.945312 29.515625 30.835938 29.523438 C 30.800781 29.523438 30.769531 29.527344 30.734375 29.527344 C 30.542969 29.539062 30.359375 29.542969 30.171875 29.535156 C 29.886719 29.53125 29.617188 29.53125 29.394531 29.699219 C 29.199219 29.898438 29.050781 30.117188 28.898438 30.34375 C 28.777344 30.519531 28.636719 30.679688 28.496094 30.84375 C 28.457031 30.890625 28.457031 30.890625 28.417969 30.9375 C 28.191406 31.210938 27.953125 31.476562 27.714844 31.738281 C 27.671875 31.785156 27.628906 31.835938 27.585938 31.882812 C 27.207031 32.300781 26.820312 32.707031 26.425781 33.109375 C 26.289062 33.25 26.15625 33.390625 26.023438 33.53125 C 25.742188 33.832031 25.433594 34.109375 25.125 34.386719 C 25.3125 34.578125 25.503906 34.761719 25.710938 34.941406 C 25.75 34.972656 25.75 34.972656 25.792969 35.011719 C 25.996094 35.183594 26.210938 35.34375 26.4375 35.496094 C 26.570312 35.589844 26.695312 35.6875 26.824219 35.789062 C 27.078125 35.992188 27.347656 36.175781 27.625 36.355469 C 27.726562 36.417969 27.824219 36.484375 27.925781 36.550781 C 29.703125 37.703125 32.148438 39.050781 34.472656 38.785156 C 35.230469 38.660156 35.832031 38.339844 36.269531 37.789062 C 36.746094 37.160156 37.214844 36.238281 37.210938 35.472656 C 37.210938 35.378906 37.210938 35.378906 37.257812 35.339844 C 37.359375 34.761719 37.371094 34.1875 37.371094 33.609375 C 37.371094 33.566406 37.371094 33.523438 37.371094 33.480469 C 37.367188 32.765625 37.328125 32.070312 37.210938 31.367188 C 37.199219 31.289062 37.199219 31.289062 37.1875 31.214844 C 37.042969 30.359375 36.832031 29.511719 36.585938 28.675781 C 36.480469 28.675781 36.402344 28.695312 36.300781 28.71875 Z M 20.523438 29.75 C 20.652344 29.953125 20.789062 30.132812 20.957031 30.3125 C 21.003906 30.363281 21.050781 30.414062 21.097656 30.464844 C 21.125 30.492188 21.148438 30.515625 21.171875 30.542969 C 21.261719 30.640625 21.347656 30.738281 21.4375 30.835938 C 21.910156 31.355469 22.394531 31.871094 22.898438 32.371094 C 22.96875 32.441406 23.039062 32.511719 23.109375 32.582031 C 23.476562 32.960938 23.867188 33.324219 24.265625 33.683594 C 24.699219 33.3125 25.117188 32.925781 25.5 32.511719 C 25.597656 32.410156 25.695312 32.3125 25.792969 32.210938 C 26.074219 31.929688 26.335938 31.640625 26.59375 31.34375 C 26.734375 31.183594 26.875 31.027344 27.015625 30.875 C 27.253906 30.613281 27.484375 30.351562 27.710938 30.082031 C 27.730469 30.058594 27.75 30.035156 27.773438 30.011719 C 27.875 29.890625 27.875 29.890625 27.90625 29.75 C 27.4375 29.746094 26.972656 29.753906 26.503906 29.773438 C 24.871094 29.835938 23.253906 29.828125 21.621094 29.765625 C 21.253906 29.753906 20.890625 29.75 20.523438 29.75 Z M 20.523438 29.75 "/>
<path style=" stroke:none;fill-rule:nonzero;fill:rgb(0%,84.313725%,100%);fill-opacity:1;" d="M 27.097656 18.925781 C 27.960938 19.617188 28.472656 20.539062 28.53125 21.554688 C 28.5625 22.644531 28.078125 23.609375 27.226562 24.402344 C 26.796875 24.75 26.296875 25.015625 25.75 25.199219 C 25.703125 25.214844 25.65625 25.230469 25.605469 25.25 C 24.488281 25.585938 23.3125 25.46875 22.246094 25.058594 C 21.617188 24.785156 20.996094 24.351562 20.621094 23.835938 C 20.621094 23.808594 20.621094 23.78125 20.621094 23.75 C 20.585938 23.75 20.554688 23.75 20.523438 23.75 C 19.921875 22.699219 19.644531 21.648438 20.078125 20.503906 C 20.480469 19.523438 21.261719 18.78125 22.339844 18.320312 C 23.941406 17.667969 25.777344 17.925781 27.097656 18.925781 Z M 27.097656 18.925781 "/>
<path style=" stroke:none;fill-rule:nonzero;fill:rgb(0%,84.313725%,100%);fill-opacity:1;" d="M 23.929688 42.867188 C 24.246094 42.867188 24.5625 42.867188 24.886719 42.867188 C 25.15625 43.265625 25.40625 43.671875 25.652344 44.078125 C 25.84375 44.402344 26.046875 44.726562 26.25 45.046875 C 26.507812 45.449219 26.75 45.855469 26.996094 46.261719 C 27.011719 45.140625 27.027344 44.023438 27.046875 42.867188 C 27.28125 42.867188 27.519531 42.867188 27.765625 42.867188 C 27.765625 44.289062 27.765625 45.710938 27.765625 47.171875 C 27.433594 47.171875 27.101562 47.171875 26.757812 47.171875 C 26.566406 46.839844 26.566406 46.839844 26.566406 46.757812 C 26.519531 46.738281 26.519531 46.738281 26.46875 46.71875 C 26.410156 46.621094 26.351562 46.523438 26.296875 46.425781 C 26.261719 46.367188 26.230469 46.304688 26.195312 46.246094 C 26.175781 46.210938 26.160156 46.179688 26.140625 46.148438 C 26.054688 46.003906 25.96875 45.859375 25.878906 45.714844 C 25.859375 45.683594 25.84375 45.65625 25.824219 45.625 C 25.769531 45.539062 25.71875 45.453125 25.664062 45.363281 C 25.339844 44.835938 25.015625 44.308594 24.695312 43.78125 C 24.679688 44.898438 24.664062 46.019531 24.648438 47.171875 C 24.410156 47.171875 24.171875 47.171875 23.929688 47.171875 C 23.929688 45.753906 23.929688 44.332031 23.929688 42.867188 Z M 23.929688 42.867188 "/>
<path style=" stroke:none;fill-rule:nonzero;fill:rgb(0%,84.313725%,100%);fill-opacity:1;" d="M 2.542969 42.867188 C 4.964844 42.867188 4.964844 42.867188 5.371094 43.160156 C 5.414062 43.1875 5.453125 43.214844 5.496094 43.246094 C 5.792969 43.554688 5.839844 43.894531 5.820312 44.285156 C 5.785156 44.589844 5.679688 44.769531 5.414062 44.976562 C 5.308594 45.050781 5.199219 45.121094 5.082031 45.1875 C 5.105469 45.199219 5.128906 45.214844 5.152344 45.230469 C 5.484375 45.453125 5.660156 45.738281 5.851562 46.054688 C 5.875 46.097656 5.902344 46.140625 5.929688 46.1875 C 6.472656 47.113281 6.472656 47.113281 6.472656 47.171875 C 6.21875 47.171875 5.96875 47.171875 5.707031 47.171875 C 5.660156 47.09375 5.660156 47.09375 5.613281 47.015625 C 5.570312 46.945312 5.527344 46.878906 5.484375 46.808594 C 5.460938 46.773438 5.441406 46.734375 5.417969 46.699219 C 5.277344 46.46875 5.132812 46.238281 4.984375 46.011719 C 4.9375 45.929688 4.9375 45.929688 4.9375 45.847656 C 4.890625 45.828125 4.890625 45.828125 4.84375 45.808594 C 4.824219 45.773438 4.808594 45.742188 4.789062 45.710938 C 4.664062 45.554688 4.523438 45.496094 4.316406 45.433594 C 4.132812 45.410156 3.949219 45.40625 3.765625 45.402344 C 3.597656 45.398438 3.433594 45.398438 3.261719 45.394531 C 3.261719 45.980469 3.261719 46.566406 3.261719 47.171875 C 3.023438 47.171875 2.785156 47.171875 2.542969 47.171875 C 2.542969 45.753906 2.542969 44.332031 2.542969 42.867188 Z M 3.261719 43.367188 C 3.261719 43.855469 3.261719 44.347656 3.261719 44.855469 C 3.449219 44.859375 3.640625 44.863281 3.835938 44.867188 C 3.894531 44.867188 3.953125 44.867188 4.015625 44.871094 C 4.347656 44.871094 4.5625 44.847656 4.84375 44.691406 C 5.066406 44.464844 5.0625 44.246094 5.054688 43.957031 C 5.03125 43.78125 4.988281 43.695312 4.84375 43.574219 C 4.5 43.347656 4.109375 43.359375 3.695312 43.363281 C 3.550781 43.363281 3.410156 43.363281 3.261719 43.367188 Z M 3.261719 43.367188 "/>
<path style=" stroke:none;fill-rule:nonzero;fill:rgb(0%,84.313725%,100%);fill-opacity:1;" d="M 9.578125 44.113281 C 10.007812 44.425781 10.164062 44.839844 10.214844 45.308594 C 10.214844 45.445312 10.214844 45.582031 10.214844 45.722656 C 9.28125 45.722656 8.347656 45.722656 7.382812 45.722656 C 7.515625 46.21875 7.515625 46.21875 7.878906 46.570312 C 8.457031 46.832031 8.976562 46.777344 9.589844 46.632812 C 9.707031 46.597656 9.8125 46.554688 9.925781 46.511719 C 9.972656 46.511719 10.019531 46.511719 10.070312 46.511719 C 10.070312 46.675781 10.070312 46.839844 10.070312 47.007812 C 9.605469 47.199219 9.199219 47.269531 8.683594 47.269531 C 8.640625 47.269531 8.59375 47.269531 8.542969 47.269531 C 7.949219 47.261719 7.5 47.09375 7.082031 46.722656 C 6.671875 46.273438 6.667969 45.730469 6.714844 45.1875 C 6.804688 44.738281 7.03125 44.40625 7.4375 44.125 C 8.058594 43.753906 8.957031 43.734375 9.578125 44.113281 Z M 7.625 44.691406 C 7.476562 44.882812 7.429688 45.035156 7.382812 45.269531 C 8.097656 45.269531 8.808594 45.269531 9.542969 45.269531 C 9.511719 44.988281 9.511719 44.988281 9.402344 44.757812 C 9.386719 44.730469 9.367188 44.703125 9.351562 44.675781 C 9.300781 44.601562 9.300781 44.601562 9.207031 44.523438 C 9.160156 44.523438 9.113281 44.523438 9.0625 44.523438 C 9.0625 44.496094 9.0625 44.46875 9.0625 44.441406 C 8.542969 44.234375 8.019531 44.347656 7.625 44.691406 Z M 7.625 44.691406 "/>
<path style=" stroke:none;fill-rule:nonzero;fill:rgb(0%,84.313725%,100%);fill-opacity:1;" d="M 44.390625 44.113281 C 44.789062 44.398438 44.964844 44.785156 45.019531 45.222656 C 45.03125 45.375 45.039062 45.53125 45.027344 45.683594 C 44.980469 45.722656 44.980469 45.722656 44.867188 45.730469 C 44.820312 45.730469 44.769531 45.730469 44.71875 45.730469 C 44.664062 45.730469 44.605469 45.730469 44.550781 45.730469 C 44.457031 45.726562 44.457031 45.726562 44.367188 45.726562 C 44.304688 45.726562 44.242188 45.726562 44.179688 45.726562 C 44.015625 45.726562 43.851562 45.726562 43.6875 45.726562 C 43.519531 45.726562 43.351562 45.726562 43.183594 45.726562 C 42.855469 45.726562 42.527344 45.726562 42.199219 45.722656 C 42.226562 45.8125 42.257812 45.898438 42.289062 45.984375 C 42.304688 46.03125 42.324219 46.082031 42.339844 46.128906 C 42.4375 46.386719 42.546875 46.503906 42.816406 46.625 C 43.34375 46.84375 43.859375 46.757812 44.402344 46.632812 C 44.519531 46.597656 44.628906 46.554688 44.738281 46.511719 C 44.785156 46.511719 44.835938 46.511719 44.882812 46.511719 C 44.882812 46.675781 44.882812 46.839844 44.882812 47.007812 C 44.417969 47.199219 44.011719 47.269531 43.5 47.269531 C 43.453125 47.269531 43.40625 47.269531 43.359375 47.269531 C 42.761719 47.261719 42.3125 47.09375 41.894531 46.722656 C 41.484375 46.273438 41.480469 45.730469 41.527344 45.1875 C 41.617188 44.738281 41.84375 44.40625 42.25 44.125 C 42.871094 43.753906 43.769531 43.734375 44.390625 44.113281 Z M 42.4375 44.691406 C 42.292969 44.882812 42.242188 45.035156 42.199219 45.269531 C 42.910156 45.269531 43.621094 45.269531 44.355469 45.269531 C 44.300781 44.859375 44.300781 44.859375 44.035156 44.542969 C 43.515625 44.210938 42.878906 44.308594 42.4375 44.691406 Z M 42.4375 44.691406 "/>
<path style=" stroke:none;fill-rule:nonzero;fill:rgb(0%,84.313725%,100%);fill-opacity:1;" d="M 31.425781 44.097656 C 31.773438 44.34375 31.921875 44.667969 31.972656 45.046875 C 31.992188 45.238281 31.988281 45.429688 31.988281 45.621094 C 31.988281 45.664062 31.988281 45.710938 31.988281 45.753906 C 31.988281 45.898438 31.988281 46.039062 31.988281 46.179688 C 31.988281 46.277344 31.988281 46.371094 31.988281 46.46875 C 31.984375 46.703125 31.984375 46.9375 31.984375 47.171875 C 31.761719 47.171875 31.539062 47.171875 31.3125 47.171875 C 31.289062 47.007812 31.289062 47.007812 31.265625 46.839844 C 31.242188 46.859375 31.21875 46.878906 31.195312 46.898438 C 31.144531 46.9375 31.144531 46.9375 31.097656 46.976562 C 31.066406 47.003906 31.035156 47.03125 31.003906 47.054688 C 30.714844 47.234375 30.417969 47.277344 30.070312 47.277344 C 30.035156 47.277344 29.996094 47.277344 29.957031 47.273438 C 29.578125 47.265625 29.28125 47.175781 29.015625 46.933594 C 28.785156 46.621094 28.710938 46.308594 28.796875 45.945312 C 28.882812 45.675781 28.980469 45.507812 29.257812 45.347656 C 29.707031 45.144531 30.121094 45.128906 30.621094 45.136719 C 30.6875 45.136719 30.753906 45.136719 30.824219 45.140625 C 30.984375 45.140625 31.148438 45.140625 31.3125 45.144531 C 31.300781 45.085938 31.285156 45.027344 31.269531 44.96875 C 31.257812 44.917969 31.257812 44.917969 31.246094 44.867188 C 31.195312 44.710938 31.117188 44.636719 30.976562 44.523438 C 30.515625 44.320312 30.003906 44.351562 29.519531 44.484375 C 29.445312 44.503906 29.445312 44.503906 29.371094 44.53125 C 29.25 44.566406 29.25 44.566406 29.15625 44.566406 C 29.140625 44.59375 29.125 44.621094 29.105469 44.648438 C 29.058594 44.605469 29.058594 44.605469 29.054688 44.484375 C 29.054688 44.4375 29.054688 44.386719 29.054688 44.335938 C 29.054688 44.285156 29.058594 44.234375 29.058594 44.183594 C 29.058594 44.148438 29.058594 44.109375 29.058594 44.070312 C 29.15625 44.042969 29.253906 44.015625 29.351562 43.988281 C 29.433594 43.964844 29.433594 43.964844 29.519531 43.945312 C 30.132812 43.792969 30.882812 43.777344 31.425781 44.097656 Z M 30.234375 45.589844 C 30.171875 45.59375 30.109375 45.601562 30.046875 45.605469 C 29.8125 45.652344 29.652344 45.738281 29.496094 45.898438 C 29.417969 46.0625 29.410156 46.210938 29.441406 46.386719 C 29.554688 46.570312 29.679688 46.710938 29.910156 46.785156 C 30.296875 46.832031 30.578125 46.78125 30.914062 46.609375 C 31.175781 46.375 31.320312 46.0625 31.316406 45.734375 C 31.316406 45.703125 31.316406 45.667969 31.3125 45.632812 C 31.3125 45.609375 31.3125 45.585938 31.3125 45.558594 C 30.949219 45.550781 30.59375 45.554688 30.234375 45.589844 Z M 30.234375 45.589844 "/>
<path style=" stroke:none;fill-rule:nonzero;fill:rgb(0%,84.313725%,100%);fill-opacity:1;" d="M 13.5625 44.070312 C 13.871094 44.285156 14.035156 44.609375 14.097656 44.9375 C 14.109375 45.113281 14.109375 45.285156 14.105469 45.460938 C 14.105469 45.507812 14.105469 45.558594 14.105469 45.609375 C 14.105469 45.765625 14.105469 45.917969 14.105469 46.074219 C 14.101562 46.183594 14.101562 46.289062 14.101562 46.394531 C 14.101562 46.652344 14.101562 46.914062 14.097656 47.171875 C 13.890625 47.171875 13.6875 47.171875 13.472656 47.171875 C 13.449219 46.988281 13.449219 46.988281 13.425781 46.800781 C 13.402344 46.832031 13.375 46.863281 13.347656 46.894531 C 13.140625 47.101562 12.882812 47.234375 12.5625 47.265625 C 12.453125 47.269531 12.34375 47.269531 12.234375 47.269531 C 12.179688 47.269531 12.179688 47.269531 12.121094 47.269531 C 11.800781 47.269531 11.535156 47.21875 11.28125 47.035156 C 10.929688 46.675781 10.890625 46.394531 10.933594 45.929688 C 11.011719 45.652344 11.183594 45.460938 11.460938 45.308594 C 11.585938 45.257812 11.707031 45.222656 11.84375 45.1875 C 11.871094 45.179688 11.902344 45.171875 11.929688 45.164062 C 12.078125 45.136719 12.21875 45.140625 12.371094 45.140625 C 12.402344 45.140625 12.433594 45.140625 12.464844 45.140625 C 12.566406 45.140625 12.667969 45.140625 12.765625 45.140625 C 12.835938 45.140625 12.902344 45.144531 12.972656 45.144531 C 13.140625 45.144531 13.308594 45.144531 13.472656 45.144531 C 13.453125 45.078125 13.429688 45.011719 13.410156 44.945312 C 13.398438 44.910156 13.386719 44.871094 13.371094 44.832031 C 13.292969 44.636719 13.148438 44.550781 12.9375 44.457031 C 12.429688 44.277344 11.855469 44.410156 11.363281 44.566406 C 11.300781 44.578125 11.238281 44.59375 11.171875 44.605469 C 11.171875 44.429688 11.171875 44.25 11.171875 44.070312 C 11.277344 44.042969 11.382812 44.015625 11.492188 43.988281 C 11.550781 43.972656 11.609375 43.960938 11.667969 43.945312 C 12.277344 43.804688 13.003906 43.777344 13.5625 44.070312 Z M 11.75 45.765625 C 11.617188 45.910156 11.566406 46.039062 11.554688 46.21875 C 11.597656 46.425781 11.652344 46.558594 11.839844 46.695312 C 12.136719 46.820312 12.4375 46.84375 12.757812 46.757812 C 13.050781 46.652344 13.21875 46.441406 13.371094 46.210938 C 13.449219 45.996094 13.460938 45.78125 13.472656 45.558594 C 12.578125 45.527344 12.578125 45.527344 11.75 45.765625 Z M 11.75 45.765625 "/>
<path style=" stroke:none;fill-rule:nonzero;fill:rgb(0%,84.313725%,100%);fill-opacity:1;" d="M 37.308594 43.945312 C 37.542969 43.945312 37.78125 43.945312 38.027344 43.945312 C 38.390625 44.792969 38.753906 45.636719 39.128906 46.511719 C 39.285156 46.1875 39.4375 45.863281 39.578125 45.535156 C 39.597656 45.492188 39.617188 45.449219 39.636719 45.402344 C 39.695312 45.265625 39.753906 45.128906 39.8125 44.996094 C 39.871094 44.855469 39.929688 44.71875 39.992188 44.582031 C 40.027344 44.496094 40.0625 44.414062 40.101562 44.328125 C 40.117188 44.289062 40.132812 44.25 40.152344 44.210938 C 40.164062 44.179688 40.179688 44.144531 40.195312 44.109375 C 40.230469 44.027344 40.230469 44.027344 40.28125 43.945312 C 40.5 43.945312 40.722656 43.945312 40.949219 43.945312 C 40.875 44.304688 40.722656 44.636719 40.574219 44.976562 C 40.546875 45.042969 40.515625 45.105469 40.488281 45.167969 C 40.417969 45.335938 40.34375 45.5 40.269531 45.667969 C 40.195312 45.835938 40.121094 46.007812 40.046875 46.175781 C 39.902344 46.507812 39.753906 46.839844 39.609375 47.171875 C 39.308594 47.171875 39.007812 47.171875 38.699219 47.171875 C 38.40625 46.550781 38.128906 45.925781 37.855469 45.296875 C 37.796875 45.164062 37.738281 45.03125 37.679688 44.898438 C 37.625 44.769531 37.570312 44.640625 37.511719 44.511719 C 37.480469 44.441406 37.480469 44.441406 37.449219 44.367188 C 37.429688 44.324219 37.414062 44.28125 37.394531 44.238281 C 37.367188 44.179688 37.367188 44.179688 37.34375 44.121094 C 37.308594 44.027344 37.308594 44.027344 37.308594 43.945312 Z M 37.308594 43.945312 "/>
<path style=" stroke:none;fill-rule:nonzero;fill:rgb(0%,84.313725%,100%);fill-opacity:1;" d="M 17.996094 44.039062 C 18.078125 44.109375 18.078125 44.109375 18.097656 44.222656 C 18.09375 44.261719 18.09375 44.304688 18.089844 44.34375 C 18.089844 44.386719 18.085938 44.429688 18.085938 44.46875 C 18.082031 44.5 18.082031 44.53125 18.078125 44.566406 C 18.03125 44.585938 18.03125 44.585938 17.980469 44.605469 C 17.886719 44.578125 17.886719 44.578125 17.773438 44.53125 C 17.375 44.367188 16.925781 44.335938 16.496094 44.433594 C 16.171875 44.550781 16.011719 44.746094 15.871094 45.019531 C 15.742188 45.402344 15.746094 45.949219 15.953125 46.304688 C 16.140625 46.546875 16.375 46.671875 16.695312 46.742188 C 17.101562 46.792969 17.46875 46.734375 17.835938 46.582031 C 17.933594 46.550781 17.933594 46.550781 18.078125 46.59375 C 18.078125 46.742188 18.078125 46.894531 18.078125 47.046875 C 17.484375 47.28125 16.792969 47.371094 16.152344 47.195312 C 15.71875 47.027344 15.375 46.722656 15.199219 46.34375 C 14.976562 45.792969 14.976562 45.195312 15.261719 44.660156 C 15.515625 44.261719 15.851562 44.035156 16.351562 43.902344 C 16.871094 43.792969 17.519531 43.816406 17.996094 44.039062 Z M 17.996094 44.039062 "/>
<path style=" stroke:none;fill-rule:nonzero;fill:rgb(0%,84.313725%,100%);fill-opacity:1;" d="M 33.183594 43.035156 C 33.40625 43.035156 33.625 43.035156 33.855469 43.035156 C 33.855469 43.335938 33.855469 43.636719 33.855469 43.945312 C 34.265625 43.945312 34.675781 43.945312 35.101562 43.945312 C 35.101562 44.09375 35.101562 44.246094 35.101562 44.398438 C 34.691406 44.398438 34.277344 44.398438 33.855469 44.398438 C 33.859375 44.691406 33.867188 44.984375 33.871094 45.273438 C 33.875 45.375 33.875 45.472656 33.878906 45.574219 C 33.878906 45.714844 33.882812 45.859375 33.886719 46 C 33.886719 46.042969 33.886719 46.089844 33.890625 46.136719 C 33.890625 46.175781 33.890625 46.21875 33.890625 46.261719 C 33.894531 46.316406 33.894531 46.316406 33.894531 46.371094 C 33.902344 46.464844 33.921875 46.546875 33.949219 46.632812 C 34.195312 46.675781 34.4375 46.6875 34.6875 46.699219 C 34.726562 46.699219 34.765625 46.703125 34.808594 46.703125 C 34.90625 46.707031 35.003906 46.714844 35.101562 46.71875 C 35.101562 46.867188 35.101562 47.019531 35.101562 47.171875 C 34.910156 47.175781 34.71875 47.179688 34.527344 47.183594 C 34.476562 47.183594 34.421875 47.183594 34.367188 47.1875 C 34.03125 47.191406 33.757812 47.167969 33.46875 47.007812 C 33.378906 46.925781 33.378906 46.925781 33.328125 46.84375 C 33.308594 46.816406 33.292969 46.789062 33.273438 46.761719 C 33.191406 46.597656 33.175781 46.433594 33.175781 46.253906 C 33.175781 46.214844 33.175781 46.171875 33.175781 46.128906 C 33.175781 46.085938 33.179688 46.042969 33.179688 45.996094 C 33.179688 45.949219 33.179688 45.90625 33.179688 45.859375 C 33.179688 45.710938 33.179688 45.566406 33.179688 45.421875 C 33.179688 45.324219 33.179688 45.222656 33.179688 45.125 C 33.179688 44.882812 33.183594 44.640625 33.183594 44.398438 C 33.039062 44.398438 32.898438 44.398438 32.75 44.398438 C 32.75 44.25 32.75 44.097656 32.75 43.945312 C 32.894531 43.945312 33.035156 43.945312 33.183594 43.945312 C 33.183594 43.644531 33.183594 43.34375 33.183594 43.035156 Z M 33.183594 43.035156 "/>
<path style=" stroke:none;fill-rule:nonzero;fill:rgb(0%,84.313725%,100%);fill-opacity:1;" d="M 19.085938 43.035156 C 19.289062 43.035156 19.496094 43.035156 19.707031 43.035156 C 19.707031 43.335938 19.707031 43.636719 19.707031 43.945312 C 20.136719 43.945312 20.5625 43.945312 21.003906 43.945312 C 21.003906 44.09375 21.003906 44.246094 21.003906 44.398438 C 20.574219 44.398438 20.148438 44.398438 19.707031 44.398438 C 19.714844 44.644531 19.71875 44.890625 19.722656 45.136719 C 19.726562 45.222656 19.726562 45.304688 19.730469 45.386719 C 19.730469 45.507812 19.734375 45.628906 19.738281 45.75 C 19.738281 45.785156 19.738281 45.824219 19.738281 45.859375 C 19.746094 46.113281 19.785156 46.347656 19.851562 46.59375 C 20.101562 46.679688 20.328125 46.691406 20.589844 46.703125 C 20.628906 46.703125 20.667969 46.703125 20.710938 46.707031 C 20.808594 46.710938 20.90625 46.714844 21.003906 46.71875 C 21.003906 46.867188 21.003906 47.019531 21.003906 47.171875 C 20.8125 47.175781 20.621094 47.179688 20.429688 47.183594 C 20.378906 47.183594 20.324219 47.183594 20.269531 47.1875 C 19.871094 47.191406 19.546875 47.152344 19.253906 46.910156 C 19.0625 46.628906 19.070312 46.371094 19.074219 46.058594 C 19.074219 46.007812 19.074219 45.960938 19.074219 45.914062 C 19.078125 45.761719 19.078125 45.609375 19.078125 45.460938 C 19.078125 45.359375 19.078125 45.253906 19.082031 45.152344 C 19.082031 44.902344 19.082031 44.652344 19.085938 44.398438 C 18.925781 44.398438 18.769531 44.398438 18.605469 44.398438 C 18.605469 44.25 18.605469 44.097656 18.605469 43.945312 C 18.761719 43.945312 18.921875 43.945312 19.085938 43.945312 C 19.085938 43.644531 19.085938 43.34375 19.085938 43.035156 Z M 19.085938 43.035156 "/>
<path style=" stroke:none;fill-rule:nonzero;fill:rgb(0%,84.313725%,100%);fill-opacity:1;" d="M 35.867188 43.945312 C 36.089844 43.945312 36.3125 43.945312 36.539062 43.945312 C 36.539062 45.011719 36.539062 46.074219 36.539062 47.171875 C 36.316406 47.171875 36.097656 47.171875 35.867188 47.171875 C 35.867188 46.105469 35.867188 45.042969 35.867188 43.945312 Z M 35.867188 43.945312 "/>
<path style=" stroke:none;fill-rule:nonzero;fill:rgb(0%,84.705882%,100%);fill-opacity:1;" d="M 35.867188 42.703125 C 36.089844 42.703125 36.3125 42.703125 36.539062 42.703125 C 36.539062 42.8125 36.542969 42.921875 36.542969 43.03125 C 36.542969 43.0625 36.542969 43.09375 36.542969 43.125 C 36.542969 43.207031 36.542969 43.285156 36.539062 43.367188 C 36.492188 43.40625 36.492188 43.40625 36.351562 43.410156 C 36.191406 43.410156 36.027344 43.410156 35.867188 43.40625 C 35.867188 43.175781 35.867188 42.941406 35.867188 42.703125 Z M 35.867188 42.703125 "/>
</g>
</svg>
